<?xml version="1.0" standalone="no"?>
<!DOCTYPE svg PUBLIC "-//W3C//DTD SVG 20010904//EN"
 "http://www.w3.org/TR/2001/REC-SVG-20010904/DTD/svg10.dtd">
<svg version="1.0" xmlns="http://www.w3.org/2000/svg"
 width="50.000000pt" height="51.000000pt" viewBox="0 0 50.000000 51.000000"
 preserveAspectRatio="xMidYMid meet">
<metadata>
Created by potrace 1.11, written by Peter Selinger 2001-2013
</metadata>
<g transform="translate(0.000000,51.000000) scale(0.100000,-0.100000)"
fill="#000000" stroke="none">
<path d="M418 485 c-14 -13 -31 -44 -38 -67 -7 -24 -19 -47 -25 -53 -6 -5 -14
-18 -18 -28 -12 -31 -75 -50 -167 -51 -47 -1 -97 2 -111 6 -25 7 -27 5 -38
-37 -20 -79 -15 -100 37 -159 26 -30 53 -55 59 -55 7 -1 37 11 68 25 69 33
147 116 170 181 9 27 20 55 24 63 5 8 16 42 27 75 13 43 19 54 22 38 2 -13 6
-23 8 -23 18 0 58 72 52 91 -7 22 -45 19 -70 -6z"/>
</g>
</svg>
