<svg xmlns="http://www.w3.org/2000/svg" version="1.0" width="55pt" height="186pt" viewBox="0 0 186 55">
  <metadata>
    
Created by potrace 1.11, written by Peter Selinger 2001-2013

  </metadata>
  <g fill="#424f59">
    <path d="M181.16 0L182.28 0C182.44 1.9 182.73 3.8 182.72 5.72 181.08 6.56 179.32 7.14 177.61 7.83 181.69 13.02 184.15 19.27 186 25.54L186 33.73C183.54 45.81 171 54.34 158.97 53.7 121.63 53.6 84.29 53.73 46.95 53.67 39.91 53.59 32.7 54.22 25.87 52.11 19.6 50.2 12.88 47.85 8.77 42.41 2.86 34.71 1.19 24.82 0 15.44L0 6.36C1.38 7.64 2.86 8.81 4.47 9.79 4.92 13.93 4.63 18.2 5.85 22.22 7.77 25.88 11.83 27.71 15.29 29.65 19.47 31.43 23.3 34.29 27.93 34.78 36.58 36.02 45.28 36.97 54.01 37.39 70.68 37.27 87.35 38.13 104.02 37.73 120.84 37.76 137.73 37.46 154.4 35.04 162.52 33.64 171.47 31.29 176.2 23.9 176.52 16.58 171.14 10.54 169.89 3.51 173.1 2.62 176.33 1.65 179.7 1.69 180.06 1.26 180.8 0.42 181.16 0Z"/>
  </g>
</svg>
