<svg xmlns="http://www.w3.org/2000/svg" width="45" height="26">  <path fill="#8C9BAE" fill-rule="evenodd" d="M42.68 21c.58.7 1.12 1.43 1.54 2.24.6 1.15.06 2.42-.97 2.5h-6.4c-1.67.13-3-.54-4.1-1.68-.88-.9-1.7-1.87-2.56-2.8-.4-.4-.78-.75-1.2-1.04-.9-.57-1.66-.4-2.16.52-.5.94-.63 1.97-.68 3-.08 1.52-.54 1.92-2.05 2-3.24.14-6.32-.35-9.17-2-2.52-1.44-4.48-3.48-6.18-5.8C5.53 13.44 3 8.5.7 3.42.22 2.28.58 1.66 1.84 1.64c2.1-.04 4.2-.04 6.28 0 .85 0 1.4.5 1.74 1.3 1.13 2.8 2.52 5.45 4.25 7.92.5.65 1 1.3 1.68 1.77.74.5 1.3.34 1.66-.5.2-.52.3-1.08.37-1.65.16-1.94.2-3.88-.1-5.82-.2-1.2-.86-2-2.06-2.22-.6-.1-.52-.34-.23-.7.53-.6 1-.97 1.98-.97h7.24c1.16.22 1.4.74 1.57 1.9v8.07c0 .44.22 1.77 1.02 2.06.63.2 1.05-.3 1.44-.72 1.74-1.85 2.98-4.03 4.1-6.3.5-1 .9-2.02 1.3-3.05.3-.77.8-1.15 1.65-1.13h6.96c.2 0 .44 0 .64.04 1.17.2 1.5.7 1.13 1.86-.57 1.8-1.7 3.32-2.77 4.83-1.17 1.62-2.4 3.18-3.56 4.8-1.05 1.5-.97 2.23.35 3.52 1.47 1.43 3 2.78 4.3 4.35z"/></svg>